<svg width="24" height="24" viewBox="0 0 24 24" fill="none" xmlns="http://www.w3.org/2000/svg">
<path d="M12 8.0625C11.8508 8.0625 11.7077 8.00324 11.6023 7.89775C11.4968 7.79226 11.4375 7.64918 11.4375 7.5C11.4375 7.35082 11.4968 7.20774 11.6023 7.10225C11.7077 6.99676 11.8508 6.9375 12 6.9375C12.1492 6.9375 12.2923 6.99676 12.3977 7.10225C12.5032 7.20774 12.5625 7.35082 12.5625 7.5C12.5625 7.64918 12.5032 7.79226 12.3977 7.89775C12.2923 8.00324 12.1492 8.0625 12 8.0625ZM12 12.5625C11.8508 12.5625 11.7077 12.5032 11.6023 12.3977C11.4968 12.2923 11.4375 12.1492 11.4375 12C11.4375 11.8508 11.4968 11.7077 11.6023 11.6023C11.7077 11.4968 11.8508 11.4375 12 11.4375C12.1492 11.4375 12.2923 11.4968 12.3977 11.6023C12.5032 11.7077 12.5625 11.8508 12.5625 12C12.5625 12.1492 12.5032 12.2923 12.3977 12.3977C12.2923 12.5032 12.1492 12.5625 12 12.5625ZM12 17.0625C11.8508 17.0625 11.7077 17.0032 11.6023 16.8977C11.4968 16.7923 11.4375 16.6492 11.4375 16.5C11.4375 16.3508 11.4968 16.2077 11.6023 16.1023C11.7077 15.9968 11.8508 15.9375 12 15.9375C12.1492 15.9375 12.2923 15.9968 12.3977 16.1023C12.5032 16.2077 12.5625 16.3508 12.5625 16.5C12.5625 16.6492 12.5032 16.7923 12.3977 16.8977C12.2923 17.0032 12.1492 17.0625 12 17.0625Z" fill="#B0B0B0" stroke="#B0B0B0" stroke-width="1.5" stroke-linecap="round" stroke-linejoin="round"/>
</svg>
