<svg width="24" height="24" viewBox="0 0 24 24" fill="none" xmlns="http://www.w3.org/2000/svg">
<path d="M18.5 3.50001H8C3.6 2.70001 1.83333 6.83334 1.5 9.00001L2.5 13L4.5 16.5L7 19L9.5 21H13L16 19.5L18.5 17.5L20 15C20.8333 13.5 22.5 10 22.5 8.00001C22.5 6.00001 19.8333 4.16668 18.5 3.50001Z" fill="#1A1C20"/>
<path d="M23.0054 10.0389C23.0301 9.95044 23.0594 9.86419 23.0804 9.77419C23.0849 9.75619 23.0864 9.73819 23.0909 9.72019C23.3051 8.85533 23.3043 7.95116 23.0884 7.0867C22.8726 6.22225 22.4483 5.42381 21.8526 4.76119C21.3034 4.02261 20.5877 3.42393 19.7638 3.01371C18.9398 2.60349 18.0308 2.3933 17.1104 2.40019H17.0714C16.9964 2.40019 16.9124 2.40544 16.8329 2.40769H16.7421C15.1571 2.49514 13.5815 2.70933 12.0306 3.04819L8.67288 2.51194H8.64663C7.04736 2.23564 5.40161 2.49951 3.96888 3.26194C3.16172 3.74839 2.46857 4.40267 1.93638 5.18044L1.90563 5.22169L1.88688 5.24794C1.18282 6.29236 0.799972 7.52008 0.785578 8.77956C0.771183 10.0391 1.12588 11.2752 1.80588 12.3354C1.79163 12.3609 1.78338 12.3894 1.76988 12.4157C1.70488 12.5457 1.64948 12.6803 1.60413 12.8184C1.58013 12.8934 1.56213 12.9729 1.54488 13.0509C1.53138 13.1147 1.51788 13.1777 1.50888 13.2414C1.49963 13.3209 1.49412 13.4007 1.49238 13.4807C1.49238 13.5452 1.48488 13.6082 1.48788 13.6719C1.49313 13.7559 1.50288 13.8392 1.51638 13.9224C1.52538 13.9817 1.52988 14.0409 1.54338 14.0994C1.56588 14.1917 1.59588 14.2824 1.63038 14.3709C1.64763 14.4182 1.65888 14.4669 1.67988 14.5134C1.74138 14.6507 1.81638 14.7804 1.90488 14.9019C2.24421 15.3878 2.7449 15.7376 3.31788 15.8889C3.2965 16.2088 3.34974 16.5292 3.47338 16.8249C3.59703 17.1206 3.78772 17.3835 4.03038 17.5929C4.46016 17.9695 4.98727 18.2174 5.55138 18.3084C5.66763 18.6857 5.87163 19.0299 6.14613 19.3134C6.52063 19.7195 7.02677 19.9799 7.57488 20.0484C7.70538 20.4932 7.95288 20.8952 8.29188 21.2109C8.70963 21.6219 9.26913 21.8559 9.85488 21.8634C10.2857 21.8614 10.7088 21.7494 11.0841 21.5379C11.6421 21.8574 12.2961 21.9654 12.9276 21.8424C13.2591 21.7818 13.5731 21.649 13.8475 21.4534C14.1219 21.2578 14.3499 21.0042 14.5154 20.7107C14.5311 20.6859 14.5401 20.6642 14.5544 20.6394C15.1919 20.7699 15.8556 20.6552 16.4129 20.3184C16.9029 20.0418 17.276 19.5968 17.4629 19.0659C18.1334 19.0749 18.7829 18.8334 19.2831 18.3872C19.5572 18.1476 19.7701 17.846 19.9039 17.5074C20.0378 17.1688 20.0888 16.8032 20.0526 16.4409C20.0526 16.4199 20.0474 16.4034 20.0459 16.3832C20.4373 16.2659 20.7894 16.0442 21.0644 15.7419C21.4199 15.3671 21.6487 14.8901 21.7187 14.3782C21.7887 13.8664 21.6962 13.3455 21.4544 12.8889C22.1287 12.1099 22.6388 11.2028 22.9544 10.2219C22.9724 10.1642 22.9874 10.1012 23.0054 10.0389ZM21.7214 8.76394C21.684 9.14103 21.6011 9.51223 21.4746 9.86944L21.4506 9.94444C21.2014 10.6117 20.8419 11.2323 20.3871 11.7804C18.0344 9.72694 14.6121 6.72994 14.3309 6.46144C14.006 6.1505 13.5746 5.97555 13.1249 5.97244C12.9854 5.97123 12.8466 5.99121 12.7131 6.03169C12.2376 6.18169 11.0691 6.55669 10.0491 6.93544C9.65913 7.08019 9.21363 6.71044 9.07788 6.39544C8.98788 6.20644 8.97288 5.99044 9.03438 5.79094C9.15663 5.56969 9.36213 5.40544 9.60513 5.33494C11.9123 4.5239 14.3228 4.04413 16.7646 3.90994H16.8554C16.9386 3.90994 17.0211 3.90394 17.0976 3.90244C17.6578 3.89323 18.2139 3.99863 18.7319 4.21219C19.5 4.5623 20.1743 5.08914 20.6999 5.74969C21.169 6.28062 21.4971 6.92101 21.6539 7.61194L21.6606 7.64644C21.6967 7.83107 21.7195 8.01805 21.7289 8.20594C21.7311 8.26669 21.7349 8.34319 21.7349 8.41069C21.7349 8.51944 21.7349 8.62744 21.7221 8.73469L21.7214 8.76394ZM3.00513 13.7582C2.99988 13.7259 2.99988 13.6907 2.99988 13.6569C2.99161 13.5847 2.99161 13.5117 2.99988 13.4394C3.00816 13.3968 3.01893 13.3548 3.03213 13.3134C3.04713 13.2467 3.06963 13.1814 3.09663 13.1192C3.12138 13.0742 3.14988 13.0307 3.18138 12.9902C3.22602 12.917 3.28025 12.8502 3.34263 12.7914L3.34713 12.7877L4.75788 11.5914C4.85161 11.5193 4.95865 11.4663 5.07288 11.4355C5.18711 11.4047 5.30628 11.3968 5.42359 11.4121C5.54089 11.4274 5.65403 11.4657 5.75652 11.5248C5.85901 11.5839 5.94884 11.6626 6.02088 11.7564C6.07334 11.8332 6.10739 11.9211 6.1204 12.0132C6.13341 12.1053 6.12502 12.1991 6.09588 12.2874L3.88338 14.4429C3.73065 14.4457 3.57982 14.4088 3.44561 14.3358C3.3114 14.2629 3.19839 14.1563 3.11763 14.0267C3.0619 13.946 3.02358 13.8545 3.00513 13.7582ZM4.89213 15.5544L7.31988 13.1889L7.30863 13.1777C7.44523 13.1097 7.59954 13.0856 7.75038 13.1087C7.94313 13.1612 8.11713 13.2692 8.24988 13.4192C8.38188 13.5317 8.47038 13.6862 8.50038 13.8572C8.51154 14.0304 8.47358 14.2033 8.39088 14.3559C8.38323 14.3768 8.37672 14.3981 8.37138 14.4197L5.91813 16.8099C5.746 16.8174 5.57426 16.7878 5.41458 16.7231C5.25489 16.6584 5.11099 16.5601 4.99263 16.4349C4.89523 16.3122 4.83418 16.1647 4.81642 16.0091C4.79866 15.8534 4.82488 15.6959 4.89213 15.5544ZM6.98088 17.8682L9.51588 15.4014C9.67713 15.4337 9.82488 15.5162 9.93738 15.6369C10.0929 15.7731 10.2011 15.9551 10.2464 16.1567C10.2582 16.2434 10.2544 16.3316 10.2351 16.4169L8.04288 18.5507C7.89662 18.5778 7.74586 18.5673 7.6048 18.5201C7.46374 18.4728 7.33704 18.3904 7.23663 18.2807C7.1195 18.1657 7.03178 18.0242 6.98088 17.8682ZM9.33363 20.1272C9.19798 20.0074 9.09087 19.8588 9.02013 19.6922L11.0909 17.6769C11.2386 17.7257 11.3736 17.8059 11.4869 17.9117C11.5926 17.9961 11.6724 18.1087 11.7171 18.2364C11.7426 18.331 11.7426 18.4306 11.7171 18.5252C11.6234 18.8277 11.4673 19.1072 11.2589 19.3457L10.6919 20.0057H10.6964C10.6776 20.0177 10.6566 20.0229 10.6394 20.0364C10.4279 20.2294 10.1558 20.3427 9.86988 20.3567C9.66799 20.3533 9.47547 20.2709 9.33363 20.1272ZM12.6891 20.3574C12.5781 20.3747 12.4664 20.3799 12.3546 20.3724L12.4101 20.3079L12.4281 20.2862L12.4289 20.2869C12.6562 20.006 12.8486 19.6985 13.0019 19.3712L13.3334 19.7222C13.3062 19.7929 13.2736 19.8613 13.2359 19.9269C13.1824 20.0348 13.1056 20.1294 13.011 20.2038C12.9165 20.2783 12.8065 20.3308 12.6891 20.3574ZM17.4891 17.5637L16.1549 16.0854C16.0403 15.9514 15.8821 15.862 15.7082 15.8331C15.5342 15.8042 15.3556 15.8376 15.2039 15.9274C15.0521 16.0171 14.9368 16.1576 14.8784 16.3239C14.82 16.4903 14.8221 16.672 14.8844 16.8369C14.9191 16.9305 14.9721 17.0162 15.0404 17.0889L16.1174 18.2889C16.1099 18.3654 16.0941 18.4412 16.0701 18.5139C16.0077 18.7264 15.8652 18.9063 15.6726 19.0157C15.4382 19.1695 15.1536 19.2275 14.8776 19.1777L13.9776 18.2222C13.8805 18.12 13.7563 18.0475 13.6195 18.0131C13.4828 17.9787 13.3391 17.9839 13.2051 18.0279C13.1935 17.9551 13.1777 17.883 13.1579 17.8119C13.0341 17.42 12.8037 17.0703 12.4926 16.8017C12.2747 16.6028 12.025 16.4419 11.7539 16.3254C11.7591 16.1859 11.7503 16.0462 11.7276 15.9084C11.6309 15.3977 11.3743 14.931 10.9949 14.5757C10.7191 14.2964 10.3781 14.0902 10.0026 13.9757C10.0064 13.8752 10.0026 13.7754 9.99138 13.6757C9.92129 13.1706 9.67982 12.7048 9.30738 12.3564C8.96824 12.0014 8.53257 11.7535 8.05413 11.6432C7.89138 11.6118 7.72539 11.6004 7.55988 11.6094C7.50102 11.3308 7.38199 11.0685 7.21113 10.8407C7.01859 10.5906 6.77861 10.381 6.50496 10.2238C6.2313 10.0667 5.92932 9.96498 5.61632 9.92465C5.30332 9.88431 4.98544 9.9061 4.68087 9.98878C4.3763 10.0714 4.09103 10.2134 3.84138 10.4064L3.81513 10.4274L2.88888 11.2074C2.45457 10.4165 2.24676 9.52118 2.2883 8.61983C2.32985 7.71848 2.61915 6.84604 3.12438 6.09844L3.14013 6.07594C3.55078 5.46365 4.08943 4.94777 4.71888 4.56394C5.8671 3.96594 7.1819 3.76775 8.45538 4.00069L8.80338 4.05619C8.28924 4.28786 7.87855 4.70095 7.64988 5.21644C7.53934 5.49927 7.48676 5.80142 7.49527 6.10496C7.50377 6.40851 7.57318 6.70724 7.69938 6.98344C7.92404 7.52683 8.34303 7.96707 8.87465 8.21832C9.40627 8.46957 10.0124 8.51382 10.5749 8.34244C11.5649 7.97569 12.7004 7.60744 13.1249 7.47319C13.1586 7.47208 13.1922 7.47858 13.2231 7.49221C13.254 7.50584 13.2814 7.52626 13.3034 7.55194C13.6701 7.89694 18.0974 11.7722 19.9469 13.3839L20.0969 13.5122C20.2134 13.7008 20.2631 13.9231 20.2382 14.1434C20.2134 14.3637 20.1152 14.5693 19.9596 14.7272C19.8528 14.8424 19.7124 14.9211 19.5584 14.9522L18.2586 13.6344C18.1172 13.4998 17.9289 13.4254 17.7336 13.4269C17.5383 13.4284 17.3513 13.5057 17.2119 13.6425C17.0725 13.7794 16.9918 13.965 16.9867 14.1602C16.9816 14.3555 17.0526 14.545 17.1846 14.6889L18.4266 15.9474C18.4319 15.9699 18.4379 15.9924 18.4446 16.0142L18.4536 16.0374C18.5099 16.1975 18.544 16.3646 18.5549 16.5339C18.5757 16.6625 18.5646 16.7943 18.5227 16.9176C18.4807 17.0409 18.4091 17.152 18.3141 17.2412C18.0899 17.4512 17.7936 17.5667 17.4869 17.5637H17.4891Z" fill="#999999"/>
</svg>
