<svg width="24" height="24" fill="currentColor" viewBox="0 0 24 24" xmlns="http://www.w3.org/2000/svg">
<path d="M19.8 4C21.015 4 22 4.98497 22 6.2V12.8387C22 13.2711 21.5268 13.5491 21.122 13.3972C20.9068 13.3164 20.6858 13.2472 20.4593 13.1896C20.1956 13.1225 20 12.8921 20 12.62V10H5.76L4 6.47V18H12.5275C12.8382 18 13.09 18.2519 13.09 18.5626C13.09 18.8659 13.09 19.148 13.09 19.4375C13.09 19.7482 12.8382 20 12.5275 20H4C3.46957 20 2.96086 19.7893 2.58579 19.4142C2.21071 19.0391 2 18.5304 2 18V6C2 5.46957 2.21071 4.96086 2.58579 4.58579C2.96086 4.21071 3.46957 4 4 4H4.65236C4.86541 4 5.06019 4.12038 5.15547 4.31094L7 8H10L8.40703 4.81406C8.22002 4.44005 8.49199 4 8.91014 4H9.65236C9.86541 4 10.0602 4.12038 10.1555 4.31094L12 8H15L13.407 4.81406C13.22 4.44005 13.492 4 13.9101 4H14.6524C14.8654 4 15.0602 4.12038 15.1555 4.31094L17 8H20L18.407 4.81406C18.22 4.44005 18.492 4 18.9101 4H19.8ZM16 20.949C16 21.3982 16.5007 21.6662 16.8745 21.417L21.298 18.468C21.6319 18.2454 21.6319 17.7546 21.298 17.532L16.8745 14.583C16.5007 14.3338 16 14.6018 16 15.051V20.949Z"/>
</svg>
