<svg width="24" height="24" viewBox="0 0 24 24" fill="currentColor" xmlns="http://www.w3.org/2000/svg">
<path fill-rule="evenodd" clip-rule="evenodd" d="M17.6473 2.11768C16.1451 4.44709 14.0141 6.95368 12.7301 10.2134C13.2824 11.4812 13.7461 12.7857 14.1178 14.1177C14.3126 13.3989 14.5483 12.6919 14.8237 12C14.8237 8.48685 16.1338 5.84262 17.6473 2.11768ZM9.17667 14.1177C8.12632 10.9504 5.81667 9.2005 2.82373 7.76473C5.55408 9.97838 5.94514 13.073 6.35314 16.2353L8.99526 18.5732C10.0343 19.7061 11.6663 21.4949 12.0002 21.8824C15.2155 15.2153 9.6242 7.20003 6.35314 2.11768C8.23785 6.75744 9.68279 9.41791 9.17667 14.1177ZM14.8237 17.6471C14.8546 18.1172 14.8546 18.5888 14.8237 19.0589L17.6473 16.2353C18.0553 13.073 18.4463 9.97838 21.1767 7.76473C17.444 9.55556 15.6242 13.3087 14.8237 17.6471Z"/>
</svg>
