<svg width="24" height="24" viewBox="0 0 24 24" fill="currentColor" xmlns="http://www.w3.org/2000/svg">
<path fill-rule="evenodd" clip-rule="evenodd" d="M18.3529 9.1765C20.8482 9.1765 24 6.35297 24 6.35297H16.2353L14.1176 8.47062L15.5294 13.4118L19.0588 12L16.9412 9.1765H18.3529ZM15.5294 3.52944L14.7014 2.11768H9.22024L8.47059 3.52944L12 7.76473L15.5294 3.52944ZM12 9.88238L11.2941 9.1765L9.17647 19.7647L12 21.8824L14.8235 19.7647L12.7059 9.1765L12 9.88238ZM7.76471 6.35297H0C0 6.35297 3.15176 9.1765 5.64706 9.1765H7.05882L4.94118 12L8.47059 13.4118L9.88235 8.47062L7.76471 6.35297Z"/>
</svg>
