<svg width="24" height="25" viewBox="0 0 24 25" fill="none" xmlns="http://www.w3.org/2000/svg">
<path d="M12 22.667C17.5228 22.667 22 18.1898 22 12.667C22 7.14414 17.5228 2.66699 12 2.66699C6.47715 2.66699 2 7.14414 2 12.667C2 18.1898 6.47715 22.667 12 22.667Z" stroke="currentColor" stroke-width="2" stroke-linecap="round" stroke-linejoin="round"/>
<path d="M9.08984 9.66756C9.32495 8.99923 9.789 8.43567 10.3998 8.07669C11.0106 7.71772 11.7287 7.5865 12.427 7.70627C13.1253 7.82605 13.7587 8.18909 14.2149 8.73109C14.6712 9.27309 14.9209 9.95908 14.9198 10.6676C14.9198 12.6676 11.9198 13.6676 11.9198 13.6676" stroke="currentColor" stroke-width="2" stroke-linecap="round" stroke-linejoin="round"/>
<path d="M12 17.667H12.01" stroke="currentColor" stroke-width="2" stroke-linecap="round" stroke-linejoin="round"/>
</svg>
